<?xml version="1.0" encoding="utf-8"?>
<!-- Generator: Adobe Illustrator 16.0.0, SVG Export Plug-In . SVG Version: 6.00 Build 0)  -->
<!DOCTYPE svg PUBLIC "-//W3C//DTD SVG 1.1//EN" "http://www.w3.org/Graphics/SVG/1.1/DTD/svg11.dtd">
<svg version="1.1" id="Layer_1" xmlns="http://www.w3.org/2000/svg" xmlns:xlink="http://www.w3.org/1999/xlink" x="0px" y="0px"
	 width="282.989px" height="80px" viewBox="-4.051 0 282.989 80" enable-background="new -4.051 0 282.989 80" xml:space="preserve"
	>
<g>
	<g>
		<g>
			<path fill-rule="evenodd" clip-rule="evenodd" fill="#C41230" d="M71.004,17.221c0.912,1.694,1.451,5.232,1.583,7.536H58.613
				c0,0-0.19-1.315-0.951-2.91L71.004,17.221z M66.932,10.653c1.594,1.854,3.157,4.071,3.811,5.655l-13.402,4.909
				c-0.446-0.802-1.036-1.641-1.819-2.397L66.932,10.653z M60.789,6.174c1.815,0.943,3.709,2.211,5.516,3.88l-11.361,8.258
				c-0.648-0.527-1.415-1.012-2.304-1.365L60.789,6.174z M53.56,3.734c1.837,0.322,4.066,0.933,6.384,2.02l-8.037,10.956
				c-0.757-0.229-1.612-0.383-2.542-0.43L53.56,3.734z M46.402,3.623c0.678-0.09,1.365-0.16,2.095-0.207c0,0,1.7-0.177,4.284,0.194
				l-4.125,12.651c-0.806,0.006-1.545,0.086-2.254,0.239V3.623z M39.807,5.383c1.682-0.733,3.606-1.308,5.86-1.658v12.954
				c-0.635,0.188-1.202,0.437-1.745,0.735L39.807,5.383z M34.451,8.946c1.244-1.219,2.776-2.336,4.667-3.251l4.24,12.062
				c-0.517,0.344-0.982,0.736-1.392,1.174L34.451,8.946z M31.036,13.756c0.678-1.419,1.596-2.87,2.847-4.221l7.595,9.964
				c-0.042,0.054-0.083,0.108-0.123,0.164c-0.23,0.334-0.412,0.706-0.562,1.083L31.036,13.756z M29.348,19.304
				c0.2-1.315,0.587-2.995,1.337-4.772l9.873,6.917c-0.143,0.489-0.231,0.969-0.288,1.376L29.348,19.304z M29.278,24.512
				c-0.087-0.799-0.133-1.641-0.133-2.534c0,0-0.027-0.724,0.101-1.888l10.948,3.415c-0.025,0.315-0.027,0.505-0.027,0.505
				s0.004,0.277,0.063,0.711L29.278,24.512z M30.51,29.493c-0.502-1.212-0.893-2.583-1.121-4.122h10.955
				c0.054,0.244,0.123,0.505,0.213,0.779L30.51,29.493z M33.194,33.748c-0.892-0.981-1.702-2.147-2.356-3.52l9.982-3.398
				c0.163,0.368,0.366,0.736,0.622,1.087L33.194,33.748z M37.046,36.791c-1.117-0.629-2.243-1.43-3.282-2.452l8.147-5.855
				c0.237,0.247,0.51,0.479,0.816,0.685L37.046,36.791z M41.565,38.59c-1.116-0.286-2.477-0.742-3.882-1.455l5.616-7.645
				c0.26,0.128,0.548,0.24,0.856,0.328L41.565,38.59z M45.775,39.022c-0.475,0.033-0.968,0.05-1.482,0.05
				c0,0-0.808-0.047-2.05-0.321l2.544-8.791c0.3,0.051,0.619,0.084,0.958,0.094L45.775,39.022z M50.094,38.165
				c-1.03,0.366-2.199,0.643-3.526,0.787l-0.175-8.902c0.278-0.015,0.537-0.044,0.78-0.091L50.094,38.165z M53.66,36.123
				c-0.776,0.666-1.704,1.265-2.811,1.745l-2.976-8.091c0.298-0.101,0.565-0.227,0.804-0.371L53.66,36.123z M56.209,32.861
				c-0.476,0.931-1.112,1.864-1.958,2.711L49.25,28.98c0.312-0.284,0.56-0.603,0.751-0.933L56.209,32.861z M57.43,29.167
				c-0.151,0.858-0.413,1.872-0.859,2.916l-6.329-4.51c0.13-0.306,0.226-0.611,0.293-0.899L57.43,29.167z M57.577,25.524
				c0.04,0.391,0.062,0.793,0.062,1.211c0,0,0.027,0.602-0.078,1.537l-6.918-2.161c0.043-0.324,0.054-0.592,0.054-0.766
				L57.577,25.524z M56.646,22.187c0.378,0.767,0.659,1.624,0.826,2.569h-6.828c-0.026-0.143-0.059-0.315-0.107-0.51L56.646,22.187z
				 M54.575,19.502c0.67,0.577,1.261,1.27,1.741,2.081l-5.94,2.101c-0.096-0.287-0.219-0.595-0.378-0.906L54.575,19.502z
				 M51.9,17.923c0.72,0.272,1.43,0.641,2.067,1.102l-4.327,3.144c-0.142-0.206-0.303-0.41-0.485-0.599L51.9,17.923z M49.009,17.347
				c0.728,0.025,1.468,0.146,2.178,0.344l-2.538,3.438c-0.224-0.172-0.477-0.321-0.756-0.444L49.009,17.347z M46.402,17.652
				c0.576-0.145,1.196-0.254,1.898-0.297l-1.018,3.117c-0.277-0.072-0.556-0.122-0.88-0.141V17.652z M44.28,18.458
				c0.399-0.21,0.847-0.421,1.386-0.6v2.466c-0.197,0.011-0.433,0.03-0.722,0.078L44.28,18.458z M42.616,19.617
				c0,0,0.375-0.381,1.103-0.837l0.617,1.764c-0.286,0.084-0.58,0.199-0.853,0.356L42.616,19.617z"/>
		</g>
		<g>
			<g>
				<g>
					<path fill-rule="evenodd" clip-rule="evenodd" fill="#231F20" d="M4.087,63.986H2.065v2.133h2.021V63.986z M1.003,63.986
						h-2.021v2.133h2.021V63.986z M2.329,66.965v1.882h1.078v5.561c0,0.607-0.034,1.254-0.432,1.769
						c-0.379,0.476-0.928,0.709-1.524,0.709c-0.646,0-1.261-0.283-1.624-0.827c-0.332-0.494-0.348-1.094-0.348-1.65v-5.561h1.077
						v-1.882h-4.607v1.882h1.276v5.793c0,1.285,0.213,2.328,1.175,3.274C-0.753,78.736,0.307,79,1.451,79
						c1.178,0,2.288-0.314,3.132-1.188c0.88-0.908,1.078-1.887,1.078-3.111v-5.854h1.275v-1.882H2.329z"/>
				</g>
				<g>
					<polygon fill-rule="evenodd" clip-rule="evenodd" fill="#231F20" points="18.736,68.847 20.011,68.847 20.011,66.965 
						15.19,66.965 15.19,68.847 16.481,68.847 16.481,74.863 10.846,66.965 7.532,66.965 7.532,68.847 8.807,68.847 8.807,76.885 
						7.532,76.885 7.532,78.773 12.356,78.773 12.356,76.885 11.062,76.885 11.062,70.999 16.632,78.773 18.736,78.773 					"/>
				</g>
				<g>
					<path fill-rule="evenodd" clip-rule="evenodd" fill="#231F20" d="M24.336,68.847h1.278v-1.882h-4.825v1.882h1.292v8.038h-1.292
						v1.889h4.825v-1.889h-1.278V68.847z M24.222,63.739H22.2v2.133h2.022V63.739z"/>
				</g>
				<g>
					<polygon fill-rule="evenodd" clip-rule="evenodd" fill="#231F20" points="36.934,68.847 38.19,68.847 38.19,66.965 
						33.533,66.965 33.533,68.847 34.678,68.847 32.173,75.661 29.839,68.847 30.966,68.847 30.966,66.965 26.175,66.965 
						26.175,68.847 27.451,68.847 30.85,78.773 33.319,78.773 					"/>
				</g>
				<g>
					<polygon fill-rule="evenodd" clip-rule="evenodd" fill="#231F20" points="38.691,78.773 47.458,78.773 47.458,75.196 
						45.205,75.196 45.205,76.802 42.236,76.802 42.236,73.68 45.684,73.68 45.684,71.922 42.236,71.922 42.236,68.98 45.205,68.98 
						45.205,70.517 47.458,70.517 47.458,66.965 38.691,66.965 38.691,68.847 39.982,68.847 39.982,76.885 38.691,76.885 					"/>
				</g>
				<g>
					<path fill-rule="evenodd" clip-rule="evenodd" fill="#231F20" d="M49.578,76.885h-1.276v1.889h4.542v-1.889h-1.012V73.46
						l3.745,5.313h2.768v-1.889h-1.341l-1.84-2.344c1.79-0.151,2.934-1.854,2.934-3.561c0-1.207-0.482-2.314-1.41-3.106
						c-0.927-0.797-1.939-0.909-3.1-0.909h-5.285v1.882h1.276V76.885z M51.832,73.248V68.98h1.557c0.63,0,1.176,0,1.674,0.413
						c0.514,0.396,0.78,1.041,0.78,1.667c0,0.667-0.281,1.293-0.811,1.709c-0.599,0.444-1.277,0.479-1.973,0.479H51.832z"/>
				</g>
				<g>
					<path fill-rule="evenodd" clip-rule="evenodd" fill="#231F20" d="M58.957,75.265v3.509h1.792v-0.778
						C61.311,78.686,62.106,79,63.016,79c2.156,0,3.748-1.57,3.748-3.702c0-0.992-0.416-1.87-1.179-2.478
						c-0.761-0.583-1.623-0.829-2.535-1.079c-0.913-0.265-1.938-0.514-1.938-1.669c0-0.929,0.728-1.475,1.605-1.475
						c0.881,0,1.525,0.663,1.542,1.543h2.022v-3.176h-1.721v0.657c-0.499-0.643-1.295-0.906-2.106-0.906
						c-1.906,0-3.58,1.452-3.58,3.404c0,1.063,0.445,1.952,1.291,2.58c0.73,0.548,1.459,0.76,2.32,1.011
						c0.913,0.265,2.021,0.562,2.021,1.739c0,1.007-0.76,1.616-1.739,1.616c-1.093,0-1.756-0.826-1.756-1.802H58.957z"/>
				</g>
				<g>
					<path fill-rule="evenodd" clip-rule="evenodd" fill="#231F20" d="M71.067,68.847h1.276v-1.882h-4.825v1.882h1.292v8.038h-1.292
						v1.889h4.825v-1.889h-1.276V68.847z M70.952,63.739H68.93v2.133h2.021V63.739z"/>
				</g>
				<g>
					<polygon fill-rule="evenodd" clip-rule="evenodd" fill="#231F20" points="78.904,68.957 80.645,68.957 80.645,70.684 
						82.434,70.684 82.434,66.965 73.122,66.965 73.122,70.684 74.911,70.684 74.911,68.957 76.651,68.957 76.651,76.885 
						75.358,76.885 75.358,78.773 80.2,78.773 80.2,76.885 78.904,76.885 					"/>
				</g>
				<g>
					<polygon fill-rule="evenodd" clip-rule="evenodd" fill="#231F20" points="83.094,78.773 91.861,78.773 91.861,75.196 
						89.607,75.196 89.607,76.802 86.639,76.802 86.639,73.68 90.087,73.68 90.087,71.922 86.639,71.922 86.639,68.98 89.607,68.98 
						89.607,70.517 91.861,70.517 91.861,66.965 83.094,66.965 83.094,68.847 84.385,68.847 84.385,76.885 83.094,76.885 					"/>
				</g>
				<g>
					<path fill-rule="evenodd" clip-rule="evenodd" fill="#231F20" d="M92.756,75.265v3.509h1.79v-0.778
						C95.107,78.686,95.905,79,96.817,79c2.154,0,3.747-1.57,3.747-3.702c0-0.992-0.417-1.87-1.179-2.478
						c-0.761-0.583-1.623-0.829-2.535-1.079c-0.912-0.265-1.941-0.514-1.941-1.669c0-0.929,0.731-1.475,1.608-1.475
						c0.881,0,1.523,0.663,1.543,1.543h2.022v-3.176h-1.724v0.657c-0.498-0.643-1.292-0.906-2.106-0.906
						c-1.904,0-3.578,1.452-3.578,3.404c0,1.063,0.446,1.952,1.292,2.58c0.728,0.548,1.458,0.76,2.32,1.011
						c0.912,0.265,2.023,0.562,2.023,1.739c0,1.007-0.762,1.616-1.741,1.616c-1.094,0-1.758-0.826-1.758-1.802H92.756z"/>
				</g>
				<g>
					<path fill-rule="evenodd" clip-rule="evenodd" fill="#231F20" d="M104.505,68.847h1.275v-1.882h-4.824v1.882h1.292v8.038
						h-1.292v1.889h4.824v-1.889h-1.275V68.847z M104.389,63.739h-2.023v2.133h2.023V63.739z"/>
				</g>
			</g>
			<g>
				<g>
					<polygon fill-rule="evenodd" clip-rule="evenodd" fill="#231F20" points="44.244,59.655 43.199,59.655 38.759,55.476 
						42.98,51.594 43.994,51.594 43.994,49.704 39.107,49.704 39.107,51.594 40.17,51.594 36.498,55.062 36.498,51.594 
						37.776,51.594 37.776,49.704 32.941,49.704 32.941,51.594 34.237,51.594 34.237,59.655 32.941,59.655 32.941,61.544 
						37.776,61.544 37.776,59.655 36.498,59.655 36.498,55.991 40.353,59.655 39.19,59.655 39.19,61.544 44.244,61.544 					"/>
				</g>
				<g>
					<path fill-rule="evenodd" clip-rule="evenodd" fill="#231F20" d="M49.928,61.795c3.475,0,6.234-2.804,6.234-6.271
						c0-3.368-2.808-6.121-6.184-6.121c-3.457,0-6.266,2.739-6.266,6.224C43.712,59.042,46.505,61.795,49.928,61.795z
						 M49.928,59.536c-2.195,0-3.889-1.789-3.889-3.98c0-2.172,1.763-3.896,3.922-3.896c2.126,0,3.874,1.754,3.874,3.878
						C53.835,57.731,52.142,59.536,49.928,59.536z"/>
				</g>
				<g>
					<path fill="#231F20" d="M68.789,57.649h-2.445c-0.73,1.143-1.977,1.787-3.34,1.787c-2.146,0-3.855-1.771-3.855-3.898
						c0-2.218,1.645-3.911,3.888-3.911c1.28,0,2.609,0.681,3.275,1.808h2.16v-3.781h-1.861v1.193
						c-0.965-0.993-2.294-1.462-3.674-1.462c-3.375,0-6.068,2.822-6.068,6.139c0,1.66,0.631,3.25,1.797,4.429
						c0.868,0.87,2.034,1.479,3.251,1.715v2.012h2.136v-1.997C66.2,61.295,68.114,59.738,68.789,57.649z"/>
				</g>
			</g>
		</g>
	</g>
	<g>
		<rect x="120.211" y="3.373" width="1.134" height="75.627"/>
	</g>
	<g>
		<path fill="#95C43D" d="M159.363,67.658c0,6.263-5.082,11.342-11.347,11.342c-6.262,0-11.34-5.079-11.34-11.342
			c0-6.258,5.079-11.343,11.34-11.343C154.281,56.315,159.363,61.4,159.363,67.658z"/>
	</g>
	<g>
		<path fill="#95C43D" d="M187.773,79c-6.262,0-11.342-5.081-11.342-11.346c0-6.266,5.08-11.342,11.342-11.342
			c6.261,0,11.343,5.076,11.343,11.342C199.116,73.919,194.034,79,187.773,79z"/>
	</g>
	<g>
		<path fill="#C3122F" d="M278.626,67.658c0,6.263-5.08,11.342-11.348,11.342c-6.265,0-11.339-5.079-11.339-11.342
			c0-6.258,5.074-11.341,11.339-11.341C273.546,56.317,278.626,61.4,278.626,67.658z"/>
	</g>
	<g>
		<g opacity="0.2">
			<g>
				<path fill="#0E866C" d="M203.847,50.047V33.433h1.979v1.684c1.114-1.319,2.419-1.979,3.916-1.979
					c1.385,0,2.255,0.729,2.609,2.188c1.16-1.459,2.527-2.188,4.099-2.188c0.822,0,1.498,0.297,2.027,0.891
					c0.527,0.594,0.793,1.565,0.793,2.912v13.106h-1.992v-13.05c0-0.908-0.141-1.54-0.422-1.895
					c-0.28-0.356-0.683-0.533-1.206-0.533c-1.058,0.02-2.102,0.594-3.13,1.727c0.018,0.28,0.029,0.495,0.029,0.645v13.106h-1.966
					v-13.05c0-0.908-0.146-1.54-0.436-1.895c-0.29-0.356-0.696-0.533-1.219-0.533c-1.06,0.02-2.092,0.594-3.104,1.727v13.751
					H203.847z"/>
				<path fill="#0E866C" d="M226.537,50.313c-1.59,0-2.735-0.491-3.438-1.473c-0.699-0.982-1.052-2.662-1.052-5.04v-4.194
					c0-1.618,0.165-2.902,0.498-3.852c0.332-0.948,0.818-1.615,1.46-2c0.64-0.383,1.489-0.575,2.547-0.575
					c0.702,0,1.299,0.091,1.797,0.273c0.495,0.182,0.905,0.442,1.234,0.779c0.326,0.337,0.585,0.792,0.777,1.369
					c0.19,0.575,0.325,1.211,0.4,1.908c0.074,0.697,0.113,1.538,0.113,2.518l-0.016,1.503h-6.706v2.483
					c0,1.723,0.165,2.938,0.498,3.649c0.332,0.71,0.954,1.065,1.874,1.065c0.729,0,1.289-0.231,1.682-0.694
					c0.393-0.462,0.589-1.302,0.589-2.52v-1.149h2.063v0.926c0,1.61-0.337,2.849-1.01,3.718
					C229.178,49.879,228.073,50.313,226.537,50.313z M224.153,40.323h4.643v-1.376c0-0.58-0.011-1.062-0.04-1.445
					s-0.088-0.765-0.176-1.144c-0.089-0.379-0.214-0.676-0.373-0.891s-0.377-0.388-0.659-0.519
					c-0.281-0.131-0.618-0.197-1.011-0.197c-0.889,0-1.509,0.308-1.858,0.926c-0.351,0.618-0.525,1.792-0.525,3.522V40.323z"/>
				<path fill="#0E866C" d="M233.877,50.047V33.433h2.105v2.287c0.505-0.842,1.097-1.464,1.774-1.866
					c0.679-0.403,1.363-0.604,2.056-0.604c0.169,0,0.289,0.005,0.363,0.014v2.273c-0.298-0.122-0.634-0.183-1.009-0.183
					c-1.348,0-2.409,0.645-3.185,1.937v12.755H233.877z"/>
				<path fill="#0E866C" d="M242.297,50.019V26.753h2.104v14.789l5.543-8.109h2.246l-4.196,6.412l3.985,10.202h-2.105l-3.493-9.036
					l-1.979,2.75v6.258H242.297z"/>
				<path fill="#0E866C" d="M257.957,50.313c-1.592,0-2.737-0.491-3.438-1.473c-0.7-0.982-1.052-2.662-1.052-5.04v-4.194
					c0-1.618,0.165-2.902,0.497-3.852c0.333-0.948,0.818-1.615,1.458-2c0.642-0.383,1.491-0.575,2.549-0.575
					c0.702,0,1.301,0.091,1.795,0.273c0.498,0.182,0.908,0.442,1.236,0.779c0.327,0.337,0.585,0.792,0.777,1.369
					c0.193,0.575,0.327,1.211,0.401,1.908c0.073,0.697,0.112,1.538,0.112,2.518l-0.016,1.503h-6.705v2.483
					c0,1.723,0.165,2.938,0.497,3.649c0.333,0.71,0.955,1.065,1.872,1.065c0.731,0,1.291-0.231,1.685-0.694
					c0.393-0.462,0.589-1.302,0.589-2.52v-1.149h2.062v0.926c0,1.61-0.336,2.849-1.009,3.718
					C260.596,49.879,259.491,50.313,257.957,50.313z M255.572,40.323h4.643v-1.376c0-0.58-0.012-1.062-0.041-1.445
					c-0.027-0.383-0.088-0.765-0.175-1.144c-0.09-0.379-0.214-0.676-0.373-0.891c-0.158-0.215-0.378-0.388-0.659-0.519
					c-0.28-0.131-0.616-0.197-1.01-0.197c-0.89,0-1.511,0.308-1.858,0.926c-0.352,0.618-0.526,1.792-0.526,3.522V40.323z"/>
				<path fill="#0E866C" d="M264.453,50.047v-1.473l5.655-13.542h-5.066v-1.599h7.283v1.249l-5.627,13.767h5.516v1.599H264.453z"/>
				<path fill="#0E866C" d="M274.949,31.146v-2.863h2.12v2.863H274.949z M274.949,50.047V33.433h2.106v16.614H274.949z"/>
			</g>
		</g>
		<g>
			<path fill="#0E866C" d="M138.304,50.019V26.753h2.105v14.789l5.543-8.109h2.245l-4.195,6.412l3.983,10.202h-2.104l-3.493-9.036
				l-1.979,2.75v6.258H138.304z"/>
			<path fill="#0E866C" d="M152.224,50.301c-0.832,0-1.47-0.31-1.907-0.927c-0.441-0.618-0.661-1.494-0.661-2.625V33.433h2.12
				v12.882c0,0.842,0.126,1.44,0.379,1.794c0.253,0.357,0.649,0.535,1.191,0.535c0.945,0,1.929-0.543,2.947-1.63V33.433h2.105
				v16.614h-2.105v-1.838C155.059,49.603,153.701,50.301,152.224,50.301z"/>
			<path fill="#0E866C" d="M161.906,50.047V26.781h2.119v23.266H161.906z"/>
			<path fill="#0E866C" d="M169.861,50.301c-0.832,0-1.468-0.31-1.907-0.927c-0.44-0.618-0.658-1.494-0.658-2.625V33.433h2.117
				v12.882c0,0.842,0.128,1.44,0.379,1.794c0.255,0.357,0.649,0.535,1.193,0.535c0.945,0,1.927-0.543,2.945-1.63V33.433h2.105
				v16.614h-2.105v-1.838C172.696,49.603,171.342,50.301,169.861,50.301z"/>
			<path fill="#0E866C" d="M183.39,50.313c-0.757,0-1.407-0.112-1.95-0.337c-0.542-0.224-0.974-0.516-1.291-0.875
				c-0.318-0.362-0.567-0.837-0.75-1.427c-0.183-0.588-0.304-1.185-0.366-1.789c-0.06-0.604-0.091-1.316-0.091-2.139v-3.873
				c0-1.208,0.066-2.21,0.198-3.011c0.13-0.799,0.361-1.485,0.692-2.056c0.332-0.57,0.785-0.984,1.362-1.242
				c0.575-0.256,1.301-0.385,2.182-0.385c0.692,0,1.291,0.084,1.797,0.253c0.505,0.168,0.913,0.4,1.227,0.694
				c0.312,0.294,0.562,0.671,0.744,1.129c0.183,0.459,0.31,0.943,0.379,1.453c0.07,0.51,0.105,1.106,0.105,1.789v0.786h-1.95v-0.786
				c0-1.421-0.169-2.402-0.505-2.94c-0.337-0.537-0.928-0.806-1.77-0.806c-0.953,0-1.585,0.339-1.894,1.017
				c-0.31,0.679-0.463,1.93-0.463,3.754v4.66c0,1.703,0.165,2.885,0.498,3.55c0.332,0.663,0.956,0.995,1.874,0.995
				c0.393,0,0.725-0.056,0.995-0.168c0.272-0.111,0.49-0.267,0.651-0.464c0.165-0.196,0.294-0.467,0.387-0.812
				c0.094-0.346,0.155-0.714,0.183-1.103c0.027-0.387,0.043-0.877,0.043-1.466v-0.914h1.95v0.815c0,0.729-0.031,1.362-0.092,1.896
				c-0.06,0.532-0.183,1.05-0.365,1.549c-0.181,0.501-0.426,0.908-0.729,1.223c-0.306,0.312-0.714,0.562-1.228,0.749
				C184.7,50.22,184.092,50.313,183.39,50.313z M182.085,55.787v-1.081c0.383,0.046,0.726,0.07,1.024,0.07
				c1.151,0,1.75-0.337,1.797-1.01c0-0.038,0-0.081,0-0.128c-0.01-0.41-0.183-0.738-0.52-0.981c-0.375-0.263-0.912-0.459-1.613-0.59
				v-2.021h1.108v1.459c0.775,0.113,1.411,0.381,1.901,0.807c0.491,0.426,0.732,0.93,0.721,1.509c0,0.852-0.4,1.445-1.205,1.783
				c-0.488,0.205-1.071,0.312-1.754,0.322C183.104,55.927,182.618,55.881,182.085,55.787z"/>
			<path fill="#0E866C" d="M190.449,50.019V26.753h2.104v14.789l5.543-8.109h2.245l-4.195,6.412l3.985,10.202h-2.105l-3.493-9.036
				l-1.979,2.75v6.258H190.449z"/>
			<path fill="#0E866C" d="M204.803,50.313c-0.974,0-1.772-0.357-2.398-1.072c-0.627-0.716-0.939-1.603-0.939-2.66
				c0-0.552,0.045-1.045,0.138-1.48c0.094-0.437,0.271-0.845,0.527-1.228c0.259-0.385,0.538-0.723,0.842-1.017
				c0.305-0.295,0.736-0.608,1.299-0.941c0.56-0.332,1.121-0.638,1.684-0.918c0.562-0.281,1.295-0.623,2.202-1.024v-1.194
				c0-1.525-0.144-2.575-0.433-3.149c-0.292-0.576-0.835-0.863-1.63-0.863c-1.534,0-2.3,0.95-2.3,2.849v0.603l-2.078-0.07
				c0-0.271,0.006-0.439,0.016-0.505c0.063-1.562,0.472-2.697,1.221-3.403c0.748-0.706,1.833-1.059,3.255-1.059
				c1.468,0,2.512,0.436,3.128,1.305c0.618,0.87,0.928,2.264,0.928,4.181v8.083c0,1.339,0.05,2.438,0.155,3.298h-1.868l-0.308-2.301
				c-0.255,0.729-0.681,1.341-1.285,1.831C206.354,50.067,205.635,50.313,204.803,50.313z M205.491,48.502
				c0.562,0,1.077-0.192,1.55-0.581s0.844-0.849,1.115-1.382V41.36c-0.056,0.028-0.144,0.075-0.266,0.142
				c-0.459,0.242-0.809,0.43-1.052,0.562c-0.245,0.13-0.537,0.293-0.877,0.489c-0.343,0.197-0.597,0.362-0.767,0.492
				c-0.167,0.13-0.361,0.292-0.581,0.478c-0.22,0.187-0.379,0.362-0.477,0.525c-0.099,0.165-0.2,0.354-0.303,0.568
				c-0.104,0.216-0.173,0.442-0.21,0.681c-0.037,0.239-0.057,0.503-0.057,0.793c0,0.814,0.183,1.42,0.548,1.817
				C204.48,48.306,204.939,48.502,205.491,48.502z"/>
		</g>
		<g opacity="0.2">
			<path fill="#95C43D" d="M138.304,27.486V4.221h2.105v14.79l5.543-8.111h2.245l-4.195,6.412l3.983,10.202h-2.104l-3.493-9.037
				l-1.979,2.75v6.258H138.304z"/>
			<path fill="#95C43D" d="M152.224,27.767c-0.832,0-1.47-0.308-1.907-0.926c-0.441-0.617-0.661-1.492-0.661-2.625V10.9h2.12v12.881
				c0,0.842,0.126,1.441,0.379,1.796c0.253,0.356,0.649,0.534,1.191,0.534c0.945,0,1.929-0.543,2.947-1.628V10.9h2.105v16.614
				h-2.105v-1.838C155.059,27.07,153.701,27.767,152.224,27.767z"/>
			<path fill="#95C43D" d="M161.906,27.514V4.249h2.119v23.266H161.906z"/>
			<path fill="#95C43D" d="M169.861,27.767c-0.832,0-1.468-0.308-1.907-0.926c-0.44-0.617-0.658-1.492-0.658-2.625V10.9h2.117
				v12.881c0,0.842,0.128,1.441,0.379,1.796c0.255,0.356,0.649,0.534,1.193,0.534c0.945,0,1.927-0.543,2.945-1.628V10.9h2.105
				v16.614h-2.105v-1.838C172.696,27.07,171.342,27.767,169.861,27.767z"/>
			<path fill="#95C43D" d="M183.39,27.781c-0.757,0-1.407-0.112-1.95-0.336c-0.542-0.225-0.974-0.517-1.291-0.877
				c-0.318-0.359-0.567-0.834-0.75-1.425c-0.183-0.588-0.304-1.185-0.366-1.789c-0.06-0.603-0.091-1.316-0.091-2.14v-3.872
				c0-1.208,0.066-2.21,0.198-3.011c0.13-0.799,0.361-1.485,0.692-2.056c0.332-0.57,0.785-0.984,1.362-1.242
				c0.575-0.257,1.301-0.385,2.182-0.385c0.692,0,1.291,0.084,1.797,0.252c0.505,0.169,0.913,0.4,1.227,0.695
				c0.312,0.294,0.562,0.67,0.744,1.129c0.183,0.458,0.31,0.943,0.379,1.453c0.07,0.51,0.105,1.106,0.105,1.789v0.786h-1.95v-0.786
				c0-1.421-0.169-2.402-0.505-2.94c-0.337-0.538-0.928-0.806-1.77-0.806c-0.953,0-1.585,0.339-1.894,1.017
				c-0.31,0.679-0.463,1.93-0.463,3.754v4.659c0,1.703,0.165,2.885,0.498,3.551c0.332,0.664,0.956,0.995,1.874,0.995
				c0.393,0,0.725-0.056,0.995-0.168c0.272-0.112,0.49-0.267,0.651-0.463c0.165-0.197,0.294-0.467,0.387-0.813
				c0.094-0.346,0.155-0.713,0.183-1.102c0.027-0.387,0.043-0.876,0.043-1.466V21.27h1.95v0.814c0,0.729-0.031,1.361-0.092,1.894
				c-0.06,0.533-0.183,1.05-0.365,1.551c-0.181,0.5-0.426,0.907-0.729,1.221c-0.306,0.312-0.714,0.563-1.228,0.75
				C184.7,27.687,184.092,27.781,183.39,27.781z M182.085,33.253v-1.08c0.383,0.046,0.726,0.07,1.024,0.07
				c1.151,0,1.75-0.336,1.797-1.01c0-0.038,0-0.08,0-0.126c-0.01-0.412-0.183-0.739-0.52-0.981c-0.375-0.263-0.912-0.459-1.613-0.59
				v-2.021h1.108v1.459c0.775,0.112,1.411,0.381,1.901,0.807c0.491,0.426,0.732,0.928,0.721,1.509c0,0.851-0.4,1.445-1.205,1.782
				c-0.488,0.206-1.071,0.312-1.754,0.322C183.104,33.394,182.618,33.347,182.085,33.253z"/>
			<path fill="#95C43D" d="M190.449,27.486V4.221h2.104v14.79l5.543-8.111h2.245l-4.195,6.412l3.985,10.202h-2.105l-3.493-9.037
				l-1.979,2.75v6.258H190.449z"/>
			<path fill="#95C43D" d="M204.803,27.781c-0.974,0-1.772-0.357-2.398-1.074c-0.627-0.715-0.939-1.601-0.939-2.658
				c0-0.552,0.045-1.046,0.138-1.481c0.094-0.435,0.271-0.844,0.527-1.229c0.259-0.383,0.538-0.722,0.842-1.017
				c0.305-0.294,0.736-0.608,1.299-0.94c0.56-0.332,1.121-0.639,1.684-0.919c0.562-0.281,1.295-0.622,2.202-1.024v-1.192
				c0-1.525-0.144-2.576-0.433-3.15c-0.292-0.576-0.835-0.863-1.63-0.863c-1.534,0-2.3,0.95-2.3,2.849v0.603l-2.078-0.07
				c0-0.272,0.006-0.439,0.016-0.504c0.063-1.563,0.472-2.697,1.221-3.404c0.748-0.707,1.833-1.059,3.255-1.059
				c1.468,0,2.512,0.435,3.128,1.305c0.618,0.869,0.928,2.263,0.928,4.181v8.082c0,1.338,0.05,2.438,0.155,3.298h-1.868
				l-0.308-2.301c-0.255,0.729-0.681,1.34-1.285,1.831C206.354,27.535,205.635,27.781,204.803,27.781z M205.491,25.971
				c0.562,0,1.077-0.195,1.55-0.582c0.473-0.389,0.844-0.849,1.115-1.383v-5.178c-0.056,0.027-0.144,0.075-0.266,0.14
				c-0.459,0.243-0.809,0.431-1.052,0.561c-0.245,0.131-0.537,0.295-0.877,0.492c-0.343,0.195-0.597,0.36-0.767,0.491
				c-0.167,0.131-0.361,0.29-0.581,0.477s-0.379,0.363-0.477,0.526c-0.099,0.164-0.2,0.354-0.303,0.569
				c-0.104,0.215-0.173,0.442-0.21,0.681c-0.037,0.238-0.057,0.503-0.057,0.792c0,0.815,0.183,1.42,0.548,1.817
				C204.48,25.772,204.939,25.971,205.491,25.971z"/>
		</g>
		<g>
			<path fill="#95C43D" d="M203.847,27.513V10.899h1.979v1.683c1.114-1.317,2.419-1.978,3.916-1.978
				c1.385,0,2.255,0.729,2.609,2.188c1.16-1.459,2.527-2.188,4.099-2.188c0.822,0,1.498,0.297,2.027,0.892
				c0.527,0.594,0.793,1.564,0.793,2.911v13.106h-1.992v-13.05c0-0.908-0.141-1.539-0.422-1.895
				c-0.28-0.355-0.683-0.533-1.206-0.533c-1.058,0.019-2.102,0.593-3.13,1.726c0.018,0.281,0.029,0.496,0.029,0.646v13.106h-1.966
				v-13.05c0-0.908-0.146-1.539-0.436-1.895s-0.696-0.533-1.219-0.533c-1.06,0.019-2.092,0.593-3.104,1.726v13.751H203.847z"/>
			<path fill="#95C43D" d="M226.537,27.78c-1.59,0-2.735-0.491-3.438-1.473c-0.699-0.982-1.052-2.662-1.052-5.038v-4.196
				c0-1.618,0.165-2.902,0.498-3.852c0.332-0.949,0.818-1.615,1.46-2c0.64-0.383,1.489-0.574,2.547-0.574
				c0.702,0,1.299,0.091,1.797,0.273c0.495,0.183,0.905,0.442,1.234,0.779c0.326,0.337,0.585,0.793,0.777,1.369
				c0.19,0.575,0.325,1.211,0.4,1.908c0.074,0.697,0.113,1.536,0.113,2.518l-0.016,1.502h-6.706v2.484
				c0,1.722,0.165,2.938,0.498,3.648c0.332,0.711,0.954,1.066,1.874,1.066c0.729,0,1.289-0.231,1.682-0.694
				c0.393-0.463,0.589-1.303,0.589-2.519v-1.15h2.063v0.926c0,1.609-0.337,2.848-1.01,3.718
				C229.178,27.345,228.073,27.78,226.537,27.78z M224.153,17.789h4.643v-1.375c0-0.58-0.011-1.062-0.04-1.445
				s-0.088-0.765-0.176-1.143c-0.089-0.38-0.214-0.677-0.373-0.892s-0.377-0.388-0.659-0.519c-0.281-0.131-0.618-0.196-1.011-0.196
				c-0.889,0-1.509,0.309-1.858,0.926c-0.351,0.618-0.525,1.792-0.525,3.523V17.789z"/>
			<path fill="#95C43D" d="M233.877,27.513V10.899h2.105v2.288c0.505-0.842,1.097-1.464,1.774-1.867
				c0.679-0.402,1.363-0.603,2.056-0.603c0.169,0,0.289,0.005,0.363,0.014v2.273c-0.298-0.121-0.634-0.183-1.009-0.183
				c-1.348,0-2.409,0.646-3.185,1.937v12.756H233.877z"/>
			<path fill="#95C43D" d="M242.297,27.485V4.22h2.104v14.79l5.543-8.111h2.246l-4.196,6.412l3.985,10.202h-2.105l-3.493-9.037
				l-1.979,2.75v6.259H242.297z"/>
			<path fill="#95C43D" d="M257.957,27.78c-1.592,0-2.737-0.491-3.438-1.473c-0.7-0.982-1.052-2.662-1.052-5.038v-4.196
				c0-1.618,0.165-2.902,0.497-3.852c0.333-0.949,0.818-1.615,1.458-2c0.642-0.383,1.491-0.574,2.549-0.574
				c0.702,0,1.301,0.091,1.795,0.273c0.498,0.183,0.908,0.442,1.236,0.779c0.327,0.337,0.585,0.793,0.777,1.369
				c0.193,0.575,0.327,1.211,0.401,1.908c0.073,0.697,0.112,1.536,0.112,2.518l-0.016,1.502h-6.705v2.484
				c0,1.722,0.165,2.938,0.497,3.648c0.333,0.711,0.955,1.066,1.872,1.066c0.731,0,1.291-0.231,1.685-0.694
				c0.393-0.463,0.589-1.303,0.589-2.519v-1.15h2.062v0.926c0,1.609-0.336,2.848-1.009,3.718S259.491,27.78,257.957,27.78z
				 M255.572,17.789h4.643v-1.375c0-0.58-0.012-1.062-0.041-1.445c-0.027-0.383-0.088-0.765-0.175-1.143
				c-0.09-0.38-0.214-0.677-0.373-0.892c-0.158-0.215-0.378-0.388-0.659-0.519c-0.28-0.131-0.616-0.196-1.01-0.196
				c-0.89,0-1.511,0.309-1.858,0.926c-0.352,0.618-0.526,1.792-0.526,3.523V17.789z"/>
			<path fill="#95C43D" d="M264.453,27.513V26.04l5.655-13.541h-5.066v-1.6h7.283v1.249l-5.627,13.766h5.516v1.6H264.453z"/>
			<path fill="#95C43D" d="M274.949,8.612V5.75h2.12v2.862H274.949z M274.949,27.513V10.899h2.106v16.614H274.949z"/>
		</g>
	</g>
</g>
</svg>
